# xmcd
#
# Track frame offsets:
# 150
# 16809
# 35109
# 50141
# 73195
# 97713
# 108787
# 117838
# 133207
# 167447
#
# Disc length: 2437 seconds
#
#
# Revision: 0
# Processed by: cddbd v1.5.1PL0 Copyright (c) Steve Scherf et al.
# Submitted via: FreeRIP 2.941 
#
DISCID=8109830a
DTITLE=Jon Shain - Home Before Long
DYEAR=2005
DGENRE=Blues
TTITLE0=Poetry and Sin
TTITLE1=Ten Days
TTITLE2=Broken White Line
TTITLE3=Pretty Peggy-O
TTITLE4=Johnson City Detour
TTITLE5=Buck Up Baby
TTITLE6=Joe Turner Ridin Down Main St
TTITLE7=Full Bloom
TTITLE8=Empty Vessels
TTITLE9=Scratch Card Sally
EXTD=
EXTT0=
EXTT1=
EXTT2=
EXTT3=
EXTT4=
EXTT5=
EXTT6=
EXTT7=
EXTT8=
EXTT9=
PLAYORDER=
